<!-- icon666.com - MILLIONS vector ICONS FREE --><svg id="Layer_1" viewBox="0 0 512 512" xmlns="http://www.w3.org/2000/svg" data-name="Layer 1"><path d="m256 0c-141.38 0-256 114.62-256 256s114.62 256 256 256 256-114.62 256-256-114.62-256-256-256zm0 89.53c33 0 59.76 31.77 59.76 70.96s-26.76 70.96-59.76 70.96-59.76-31.77-59.76-70.96 26.76-70.96 59.76-70.96zm153.36 309.36a12 12 0 0 1 -12 12h-282.71a12 12 0 0 1 -12-12v-5.24a143 143 0 0 1 142.98-143h20.73a143 143 0 0 1 143 143z" fill="#000000" style="fill: rgb(168, 168, 168);"></path></svg>