<svg width="24" height="24" viewBox="0 0 24 24" fill="none" xmlns="http://www.w3.org/2000/svg">
<path fill-rule="evenodd" clip-rule="evenodd" d="M5.79134 10.9754L6.28304 9.50771L5.14888 8.45439C4.68557 8.0241 4.40087 7.41707 4.40087 6.73989C4.40087 5.4482 5.44799 4.40108 6.73969 4.40108C7.56679 4.40108 8.29565 4.82864 8.71479 5.48618L9.54531 6.78906L11.0751 6.57241C11.3777 6.52955 11.6881 6.50722 12.005 6.50722C12.322 6.50722 12.6324 6.52955 12.9349 6.57241L14.4648 6.78906L15.2953 5.48618C15.7144 4.82864 16.4433 4.40108 17.2704 4.40108C18.5621 4.40108 19.6092 5.4482 19.6092 6.73989C19.6092 7.41707 19.3245 8.02409 18.8612 8.45438L17.727 9.5077L18.2187 10.9754C18.4369 11.6266 18.5561 12.3261 18.5561 13.0583C18.5561 16.6764 15.6231 19.6094 12.005 19.6094C8.38696 19.6094 5.45394 16.6764 5.45394 13.0583C5.45394 12.3261 5.57315 11.6266 5.79134 10.9754ZM6.73969 2.00108C8.42073 2.00108 9.89734 2.8764 10.7386 4.19612C11.1523 4.13752 11.5751 4.10722 12.005 4.10722C12.4349 4.10722 12.8578 4.13752 13.2715 4.19612C14.1127 2.8764 15.5893 2.00108 17.2704 2.00108C19.8876 2.00108 22.0092 4.12272 22.0092 6.73989C22.0092 8.11183 21.4262 9.34759 20.4944 10.213C20.7939 11.1068 20.9561 12.0636 20.9561 13.0583C20.9561 18.0019 16.9486 22.0094 12.005 22.0094C7.06148 22.0094 3.05394 18.0019 3.05394 13.0583C3.05394 12.0636 3.21618 11.1068 3.51565 10.213C2.58388 9.3476 2.00087 8.11183 2.00087 6.73989C2.00087 4.12272 4.12251 2.00108 6.73969 2.00108ZM12.005 17.0073C9.79496 17.0073 8.00336 15.2157 8.00336 13.0057H10.4044C10.4044 13.8897 11.121 14.6063 12.005 14.6063C12.889 14.6063 13.6057 13.8897 13.6057 13.0057H16.0067C16.0067 15.2157 14.2151 17.0073 12.005 17.0073Z" fill="white"/>
</svg>
