<!-- icon666.com - MILLIONS OF FREE VECTOR ICONS --><svg viewBox="0 0 512 512" xmlns="http://www.w3.org/2000/svg"><path d="m196.019531 429.585938-113.609375-113.609376c-5.855468-5.855468-15.351562-5.855468-21.210937 0l-56.804688 56.804688c-2.816406 2.816406-4.394531 6.628906-4.394531 10.609375v113.605469c0 8.285156 6.71875 15 15 15h113.609375c3.980469 0 7.792969-1.578125 10.609375-4.390625l56.804688-56.804688c5.855468-5.859375 5.855468-15.355469-.003907-21.214843zm0 0" fill="#ffcdbe"></path><path d="m15 511.996094h113.609375c3.980469 0 7.792969-1.578125 10.609375-4.390625l56.804688-56.804688c5.855468-5.859375 5.855468-15.355469 0-21.214843l-56.804688-56.800782-134.820312 134.820313c2.710937 2.714843 6.460937 4.390625 10.601562 4.390625zm0 0" fill="#ffbeaa"></path><path d="m398.871094 226.738281-113.609375-113.609375c-5.855469-5.855468-15.355469-5.855468-21.210938 0l-202.851562 202.847656c-2.8125 2.8125-4.394531 6.628907-4.394531 10.609376 0 3.976562 1.582031 7.792968 4.394531 10.605468l113.609375 113.609375c2.925781 2.925781 6.765625 4.390625 10.605468 4.390625 3.839844 0 7.675782-1.464844 10.605469-4.390625l202.851563-202.851562c2.8125-2.8125 4.390625-6.628907 4.390625-10.605469 0-3.980469-1.578125-7.792969-4.390625-10.605469zm0 0" fill="#ffd400"></path><path d="m174.808594 450.800781c2.929687 2.929688 6.769531 4.390625 10.605468 4.390625 3.839844 0 7.679688-1.464844 10.605469-4.390625l202.851563-202.851562c2.8125-2.8125 4.394531-6.628907 4.394531-10.605469 0-3.980469-1.582031-7.792969-4.394531-10.605469l-56.804688-56.804687-224.0625 224.0625zm0 0" fill="#ff9f04"></path><path d="m455.675781 169.933594-113.609375-113.609375c-2.8125-2.8125-6.628906-4.394531-10.605468-4.394531-3.980469 0-7.796876 1.582031-10.609376 4.394531l-56.804687 56.804687c-5.855469 5.859375-5.855469 15.355469 0 21.214844l113.609375 113.605469c2.8125 2.8125 6.628906 4.394531 10.605469 4.394531 3.976562 0 7.792969-1.582031 10.605469-4.394531l56.804687-56.804688c5.859375-5.855469 5.859375-15.355469.003906-21.210937zm0 0" fill="#a8ebfa"></path><path d="m398.871094 113.132812-78.015625 78.015626 56.800781 56.800781c2.816406 2.816406 6.628906 4.394531 10.605469 4.394531 3.980469 0 7.796875-1.578125 10.609375-4.394531l56.804687-56.804688c5.855469-5.855469 5.855469-15.355469 0-21.210937zm0 0" fill="#76e2f8"></path><path d="m484.078125 27.925781c-18.007813-18.007812-41.945313-27.925781-67.410156-27.925781-25.464844 0-49.40625 9.917969-67.410157 27.925781l-28.402343 28.398438c-2.816407 2.8125-4.394531 6.628906-4.394531 10.605469 0 3.980468 1.582031 7.796874 4.394531 10.605468l113.605469 113.609375c2.8125 2.8125 6.628906 4.390625 10.605468 4.390625 3.980469 0 7.792969-1.578125 10.609375-4.390625l28.402344-28.402343c18.007813-18.003907 27.921875-41.945313 27.921875-67.410157 0-25.464843-9.914062-49.402343-27.921875-67.40625zm0 0" fill="#ff4949"></path><path d="m377.660156 134.34375 56.800782 56.800781c2.8125 2.816407 6.628906 4.394531 10.605468 4.394531 3.980469 0 7.792969-1.578124 10.609375-4.394531l28.402344-28.402343c18.007813-18.003907 27.921875-41.945313 27.921875-67.410157 0-25.464843-9.914062-49.402343-27.921875-67.40625zm0 0" fill="#e80048"></path></svg>