<svg xmlns="http://www.w3.org/2000/svg" width="24" height="24" fill="none"><path fill="#fff" fill-rule="evenodd" d="M20.695 5.36a1.5 1.5 0 1 1-2.122-2.12 1.5 1.5 0 0 1 2.122 2.12Zm-9.29-.343a1.5 1.5 0 1 1-2.12-2.121 1.5 1.5 0 0 1 2.12 2.12Zm7.7 9.82a1.5 1.5 0 1 0 2.12-2.12 1.5 1.5 0 0 0-2.12 2.12ZM13.928.5c.129 1.885-.155 3.658-1.004 5.134-.56.973-1.394 1.868-2.613 2.598l1.738 1.737c1.287-.868 2.261-1.932 2.956-3.139 1.123-1.953 1.452-4.172 1.328-6.33h-2.405Zm3.188 8.417c1.962-1.163 4.2-1.52 6.384-1.389v2.405c-1.891-.135-3.675.168-5.161 1.049-.976.578-1.874 1.435-2.606 2.672l-1.74-1.74c.865-1.297 1.922-2.286 3.123-2.997ZM6.04 20.337l-2.448.28.281-2.447 1.038-9.056.35-3.045 2.167 2.167 8.546 8.547 2.167 2.167-3.045.35-9.056 1.037Zm6.889-3.205-6.608.757.757-6.608 5.85 5.85Z" clip-rule="evenodd"/></svg>