<!-- icon666.com - MILLIONS vector ICONS FREE --><svg clip-rule="evenodd" fill-rule="evenodd" stroke-linejoin="round" stroke-miterlimit="2" viewBox="0 0 32 32" xmlns="http://www.w3.org/2000/svg"><g id="outline"><path d="m23.38 25.35h-19.995c-.359 0-.65.291-.65.65s.291.65.65.65h19.995v1.053c0 1.125.912 2.036 2.036 2.036h.001c1.124 0 2.036-.911 2.036-2.036v-1.053h1.081c.359 0 .65-.291.65-.65s-.291-.65-.65-.65h-1.081v-1.053c0-1.125-.912-2.036-2.036-2.036h-.001c-1.124 0-2.036.911-2.036 2.036zm2.773-1.053v3.406c0 .407-.33.736-.736.736h-.001c-.406 0-.736-.329-.736-.736v-3.406c0-.407.33-.736.736-.736h.001c.406 0 .736.329.736.736zm-21.646-8.947h-1.081c-.359 0-.65.291-.65.65s.291.65.65.65h1.081v1.053c0 1.125.911 2.036 2.036 2.036 1.125 0 2.036-.911 2.036-2.036v-1.053h19.995c.359 0 .65-.291.65-.65s-.291-.65-.65-.65h-19.995v-1.053c0-1.125-.911-2.036-2.036-2.036-1.125 0-2.036.911-2.036 2.036zm1.3-1.053c0-.407.329-.736.736-.736.407 0 .736.329.736.736v3.406c0 .407-.329.736-.735.736-.001 0-.001 0-.001 0-.407 0-.736-.329-.736-.736zm17.573-8.947h-19.995c-.359 0-.65.291-.65.65s.291.65.65.65h19.995v1.053c0 1.125.912 2.036 2.036 2.036h.001c1.124 0 2.036-.911 2.036-2.036v-1.053h1.081c.359 0 .65-.291.65-.65s-.291-.65-.65-.65h-1.081v-1.053c0-1.125-.912-2.036-2.036-2.036h-.001c-1.124 0-2.036.911-2.036 2.036zm2.773-1.053v3.406c0 .407-.33.736-.736.736h-.001c-.406 0-.736-.329-.736-.736v-3.406c0-.407.33-.736.736-.736h.001c.406 0 .736.329.736.736z" fill="#000000" style="fill: rgb(255, 255, 255);"></path></g></svg>