<!-- icon666.com - MILLIONS OF FREE VECTOR ICONS --><svg viewBox="0 0 32 32" xmlns="http://www.w3.org/2000/svg"><g id="_10_star" data-name="10 star"><path d="m30 12.61a1 1 0 0 0 -.8-.67l-8.5-1.29-3.79-8.07a1 1 0 0 0 -1.82 0l-3.79 8.07-8.45 1.29a1 1 0 0 0 -.8.67 1 1 0 0 0 .23 1l6.15 6.3-1.43 8.93a1 1 0 0 0 1.47 1l7.53-4.14 7.55 4.18a1 1 0 0 0 .45.12 1 1 0 0 0 .58-.18 1 1 0 0 0 .41-1l-1.45-8.91 6.15-6.3a1 1 0 0 0 .31-1zm-8.22 6.29a1 1 0 0 0 -.27.85l1.21 7.38-6.24-3.45a1 1 0 0 0 -1 0l-6.2 3.45 1.21-7.38a1 1 0 0 0 -.27-.85l-5.14-5.27 7.05-1.08a1 1 0 0 0 .76-.57l3.11-6.63 3.11 6.65a1 1 0 0 0 .76.57l7.05 1.08z"></path></g></svg>